<svg xmlns="http://www.w3.org/2000/svg">
  <defs>
    <linearGradient id="blue" x1="0" y1="0" x2="1" y2="1">
      <stop stop-color="#5ee7ff"/>
      <stop offset="0.48" stop-color="#3677f4"/>
      <stop offset="1" stop-color="#3136a8"/>
    </linearGradient>
    <linearGradient id="violet" x1="0" y1="0" x2="1" y2="1">
      <stop stop-color="#c087ff"/>
      <stop offset="0.48" stop-color="#7c4dff"/>
      <stop offset="1" stop-color="#3f2a9c"/>
    </linearGradient>
    <linearGradient id="cyan" x1="0" y1="0" x2="1" y2="1">
      <stop stop-color="#8bf7ff"/>
      <stop offset="0.55" stop-color="#1bd8ea"/>
      <stop offset="1" stop-color="#058bbf"/>
    </linearGradient>
    <linearGradient id="lime" x1="0" y1="0" x2="1" y2="1">
      <stop stop-color="#e4ff72"/>
      <stop offset="0.5" stop-color="#a8ef2f"/>
      <stop offset="1" stop-color="#60b823"/>
    </linearGradient>
    <linearGradient id="paper" x1="0" y1="0" x2="1" y2="1">
      <stop stop-color="#fff"/>
      <stop offset="0.55" stop-color="#e9efff"/>
      <stop offset="1" stop-color="#a8b7df"/>
    </linearGradient>
    <linearGradient id="glass" x1="0" y1="0" x2="1" y2="1">
      <stop stop-color="#d9fbff" stop-opacity=".88"/>
      <stop offset=".5" stop-color="#719cff" stop-opacity=".52"/>
      <stop offset="1" stop-color="#6236dd" stop-opacity=".7"/>
    </linearGradient>
    <filter id="soft-shadow" x="-30%" y="-30%" width="160%" height="170%">
      <feDropShadow dx="0" dy="7" stdDeviation="6" flood-color="#162865" flood-opacity=".24"/>
    </filter>
    <filter id="inner-glow" x="-30%" y="-30%" width="160%" height="160%">
      <feDropShadow dx="0" dy="2" stdDeviation="2" flood-color="#fff" flood-opacity=".65"/>
    </filter>

    <symbol id="category-all" viewBox="0 0 128 128">
      <g filter="url(#soft-shadow)">
        <path d="M22 50h84v49a12 12 0 0 1-12 12H34a12 12 0 0 1-12-12z" fill="url(#paper)" stroke="#7990c5" stroke-width="3"/>
        <path d="M25 47a14 14 0 0 1 14-14h50a14 14 0 0 1 14 14v16H25z" fill="url(#blue)" stroke="#273790" stroke-width="3"/>
        <path d="M47 34v-7a8 8 0 0 1 8-8h18a8 8 0 0 1 8 8v7" fill="none" stroke="#cbd7f8" stroke-width="7" stroke-linecap="round"/>
        <path d="M53 56 41 82m4-5 14 8M76 55v35m-9-17h18" fill="none" stroke="url(#cyan)" stroke-width="9" stroke-linecap="round"/>
        <rect x="52" y="61" width="24" height="14" rx="5" fill="url(#lime)" stroke="#61a91b" stroke-width="2"/>
      </g>
    </symbol>

    <symbol id="category-images" viewBox="0 0 128 128">
      <g filter="url(#soft-shadow)">
        <rect x="32" y="18" width="77" height="82" rx="16" fill="url(#violet)" transform="rotate(9 70 59)"/>
        <rect x="22" y="23" width="82" height="82" rx="16" fill="url(#cyan)" transform="rotate(-5 63 64)"/>
        <rect x="19" y="31" width="82" height="78" rx="16" fill="url(#paper)" stroke="#8799ca" stroke-width="3"/>
        <circle cx="75" cy="52" r="9" fill="#ffc84b"/>
        <path d="M31 93 48 69l13 15 10-11 19 20z" fill="url(#blue)" stroke="#273790" stroke-width="2" stroke-linejoin="round"/>
      </g>
    </symbol>

    <symbol id="category-documents" viewBox="0 0 128 128">
      <g filter="url(#soft-shadow)">
        <path d="M47 18h51l14 15v69a12 12 0 0 1-12 12H47z" fill="url(#violet)" opacity=".9"/>
        <path d="M26 21h57l18 19v60a13 13 0 0 1-13 13H26a13 13 0 0 1-13-13V34a13 13 0 0 1 13-13z" fill="url(#paper)" stroke="#7e91c7" stroke-width="3"/>
        <path d="M83 21v20h18" fill="#ff675f" stroke="#d84255" stroke-width="2"/>
        <path d="M31 56h49M31 72h40M31 88h31" stroke="#4d68af" stroke-width="7" stroke-linecap="round"/>
        <rect x="23" y="91" width="23" height="13" rx="5" fill="#ff675f"/>
      </g>
    </symbol>

    <symbol id="category-text-data" viewBox="0 0 128 128">
      <g filter="url(#soft-shadow)">
        <rect x="14" y="21" width="70" height="88" rx="15" fill="url(#paper)" stroke="#8193c6" stroke-width="3"/>
        <path d="M29 45h39M29 61h32M29 77h39M29 93h20" stroke="url(#blue)" stroke-width="7" stroke-linecap="round"/>
        <ellipse cx="91" cy="67" rx="23" ry="10" fill="#cfd8f3"/>
        <path d="M68 67v31c0 6 10 11 23 11s23-5 23-11V67" fill="url(#violet)" stroke="#4130a2" stroke-width="3"/>
        <ellipse cx="91" cy="67" rx="23" ry="10" fill="url(#cyan)" stroke="#286fbd" stroke-width="3"/>
        <path d="M69 82c3 6 13 9 22 9s19-3 22-9" fill="none" stroke="#c5f8ff" stroke-width="3"/>
      </g>
    </symbol>

    <symbol id="category-qr-barcode" viewBox="0 0 128 128">
      <g filter="url(#soft-shadow)">
        <rect x="13" y="18" width="73" height="73" rx="14" fill="url(#paper)" stroke="#7f93c8" stroke-width="3" transform="rotate(-4 50 55)"/>
        <g fill="#27338f">
          <path d="M25 31h20v20H25zm6 6v8h8v-8zM55 31h19v19H55zm6 6v7h7v-7zM25 61h20v19H25zm6 6v7h8v-7z" fill-rule="evenodd"/>
          <path d="M53 58h8v8h-8zm12 0h8v8h-8zM53 70h8v8h-8zm12 10h9v8h-9z"/>
        </g>
        <rect x="62" y="64" width="52" height="48" rx="12" fill="url(#paper)" stroke="#8294c3" stroke-width="3" transform="rotate(5 88 88)"/>
        <path d="M76 76v25m8-27v29m9-28v28m8-25v24" stroke="url(#blue)" stroke-width="6" stroke-linecap="round"/>
        <path d="M17 30v-9h10M72 18h10v9M13 73v10h10" fill="none" stroke="url(#lime)" stroke-width="7" stroke-linecap="round"/>
      </g>
    </symbol>

    <symbol id="category-media" viewBox="0 0 128 128">
      <g filter="url(#soft-shadow)">
        <rect x="49" y="28" width="66" height="75" rx="17" fill="url(#violet)" stroke="#3c2c91" stroke-width="3"/>
        <circle cx="54" cy="55" r="34" fill="url(#blue)" stroke="#3443a9" stroke-width="3"/>
        <path d="m49 42 20 13-20 13z" fill="#fff" stroke="#c6d0ef" stroke-width="2" stroke-linejoin="round"/>
        <path d="M17 93c9-18 15 18 23 0s14-20 20 0 13 17 19 0 13-12 20 0 8 8 13 0" fill="none" stroke="url(#cyan)" stroke-width="7" stroke-linecap="round"/>
      </g>
    </symbol>

    <symbol id="category-developer" viewBox="0 0 128 128">
      <g filter="url(#soft-shadow)">
        <rect x="14" y="20" width="96" height="79" rx="16" fill="#172454" stroke="#5870ba" stroke-width="4"/>
        <path d="M14 40h96" stroke="#6379bb" stroke-width="3"/>
        <circle cx="29" cy="30" r="4" fill="#ff626e"/><circle cx="41" cy="30" r="4" fill="#ffc547"/><circle cx="53" cy="30" r="4" fill="#aaf02f"/>
        <path d="m45 56-13 12 13 12M65 56l13 12-13 12" fill="none" stroke="url(#cyan)" stroke-width="8" stroke-linecap="round" stroke-linejoin="round"/>
        <path d="M38 89h34" stroke="#879dff" stroke-width="6" stroke-linecap="round"/>
        <circle cx="99" cy="95" r="22" fill="url(#paper)" stroke="#7485b8" stroke-width="3"/>
        <path d="M99 82v26M86 95h26" stroke="#465d9e" stroke-width="8" stroke-linecap="round"/>
      </g>
    </symbol>

    <symbol id="category-other" viewBox="0 0 128 128">
      <g filter="url(#soft-shadow)">
        <path d="M42 48 64 29l26 20M43 78l22 21 27-21" fill="none" stroke="#8999c7" stroke-width="8" stroke-linecap="round"/>
        <circle cx="64" cy="27" r="18" fill="url(#violet)"/><circle cx="36" cy="78" r="20" fill="url(#lime)"/><circle cx="94" cy="76" r="21" fill="url(#blue)"/>
        <path d="m64 18 3 6 7 1-5 5 1 7-6-3-6 3 1-7-5-5 7-1z" fill="#fff"/>
        <path d="M28 78h16M36 70v16M88 70l12 12M100 70 88 82" stroke="#fff" stroke-width="5" stroke-linecap="round"/>
        <path d="m108 27 3 7 7 3-7 3-3 8-3-8-8-3 8-3z" fill="#ffc63f"/>
      </g>
    </symbol>

    <symbol id="tool-json-formatter" viewBox="0 0 128 128">
      <g filter="url(#soft-shadow)">
        <path d="m64 10 47 25v58l-47 25-47-25V35z" fill="url(#glass)" stroke="#5e7de2" stroke-width="3"/>
        <path d="m64 10 47 25-47 24-47-24z" fill="#b6f5ff" fill-opacity=".35"/>
        <path d="M54 36c-11 0-13 7-13 14v6c0 6-3 8-8 8 5 0 8 2 8 8v6c0 7 2 14 13 14M74 36c11 0 13 7 13 14v6c0 6 3 8 8 8-5 0-8 2-8 8v6c0 7-2 14-13 14" fill="none" stroke-linecap="round" stroke-width="10"/>
        <path d="M54 36c-11 0-13 7-13 14v6c0 6-3 8-8 8 5 0 8 2 8 8v6c0 7 2 14 13 14" stroke="url(#cyan)"/>
        <path d="M74 36c11 0 13 7 13 14v6c0 6 3 8 8 8-5 0-8 2-8 8v6c0 7-2 14-13 14" stroke="url(#violet)"/>
      </g>
    </symbol>

    <symbol id="tool-base64" viewBox="0 0 128 128">
      <g filter="url(#soft-shadow)">
        <rect x="13" y="35" width="46" height="47" rx="12" fill="url(#blue)" stroke="#3444a4" stroke-width="3"/>
        <rect x="69" y="49" width="46" height="47" rx="12" fill="url(#violet)" stroke="#5231aa" stroke-width="3"/>
        <path d="M35 27c25-18 55-10 67 10l-1-14M102 37l-14-1M94 106c-24 15-51 7-65-11l1 14M29 95l14 1" fill="none" stroke-linecap="round" stroke-linejoin="round" stroke-width="9"/>
        <path d="M35 27c25-18 55-10 67 10l-1-14M102 37l-14-1" stroke="url(#lime)"/>
        <path d="M94 106c-24 15-51 7-65-11l1 14M29 95l14 1" stroke="url(#cyan)"/>
      </g>
    </symbol>

    <symbol id="tool-text-formatter" viewBox="0 0 128 128">
      <g filter="url(#soft-shadow)">
        <rect x="15" y="14" width="79" height="100" rx="16" fill="url(#paper)" stroke="#8294c7" stroke-width="3"/>
        <path d="M31 39h43M31 56h34M31 73h47" stroke="url(#blue)" stroke-width="7" stroke-linecap="round"/>
        <rect x="27" y="88" width="16" height="12" rx="4" fill="#5879dd"/><rect x="47" y="88" width="16" height="12" rx="4" fill="url(#lime)"/><rect x="67" y="88" width="16" height="12" rx="4" fill="url(#violet)"/>
        <path d="m88 78 24 31" stroke="#263461" stroke-width="8" stroke-linecap="round"/>
        <path d="m82 70 8-17 8 17 17 8-17 8-8 17-8-17-17-8z" fill="#ffca3f" stroke="#e89d22" stroke-width="2"/>
      </g>
    </symbol>

    <symbol id="tool-qr-generator" viewBox="0 0 128 128">
      <g filter="url(#soft-shadow)">
        <path d="M27 87h78v18a10 10 0 0 1-10 10H37a10 10 0 0 1-10-10z" fill="url(#blue)" stroke="#3346a7" stroke-width="3"/>
        <rect x="16" y="13" width="77" height="81" rx="15" fill="url(#paper)" stroke="#8093c7" stroke-width="3"/>
        <g fill="#27338f">
          <path d="M28 27h20v20H28zm6 6v8h8v-8zM60 27h20v20H60zm6 6v8h8v-8zM28 59h20v20H28zm6 6v8h8v-8z" fill-rule="evenodd"/>
          <path d="M57 57h8v8h-8zm13 0h9v8h-9zM57 70h8v9h-8zm13 0h9v9h-9z"/>
        </g>
        <circle cx="98" cy="87" r="24" fill="url(#blue)" stroke="#283994" stroke-width="3"/>
        <path d="M98 75v24M86 87h24" stroke="#fff" stroke-width="7" stroke-linecap="round"/>
      </g>
    </symbol>

    <symbol id="tool-qr-reader" viewBox="0 0 128 128">
      <g filter="url(#soft-shadow)">
        <rect x="23" y="20" width="74" height="76" rx="15" fill="url(#paper)" stroke="#7f93c8" stroke-width="3"/>
        <g fill="#27338f">
          <path d="M36 33h18v18H36zm6 6v6h6v-6zM65 33h18v18H65zm6 6v6h6v-6zM36 63h18v18H36zm6 6v6h6v-6z" fill-rule="evenodd"/>
          <path d="M63 61h8v8h-8zm12 0h8v8h-8zM63 73h8v8h-8z"/>
        </g>
        <path d="M25 34V22h12M82 22h13v12M23 82v13h13M83 95h13V82" fill="none" stroke="url(#lime)" stroke-width="7" stroke-linecap="round"/>
        <path d="M18 62h85" stroke="url(#cyan)" stroke-width="5" stroke-linecap="round"/>
        <circle cx="91" cy="91" r="25" fill="url(#paper)" stroke="#6f82b5" stroke-width="3"/>
        <circle cx="91" cy="91" r="14" fill="url(#violet)" stroke="#293778" stroke-width="5"/>
        <circle cx="86" cy="86" r="4" fill="#b9f7ff"/>
      </g>
    </symbol>

    <symbol id="tool-image-resizer" viewBox="0 0 128 128">
      <g filter="url(#soft-shadow)">
        <rect x="23" y="23" width="82" height="82" rx="16" fill="url(#glass)" stroke="#6989dd" stroke-width="3"/>
        <rect x="32" y="32" width="64" height="64" rx="12" fill="url(#paper)"/>
        <circle cx="76" cy="49" r="8" fill="#ffc74a"/>
        <path d="M39 87 53 65l12 14 9-10 15 18z" fill="url(#blue)"/>
        <path d="M31 19H18v13M97 19h13v13M18 96v13h13M110 96v13H97" fill="none" stroke="url(#lime)" stroke-width="8" stroke-linecap="round" stroke-linejoin="round"/>
      </g>
    </symbol>

    <symbol id="tool-image-converter" viewBox="0 0 128 128">
      <g filter="url(#soft-shadow)">
        <rect x="48" y="17" width="65" height="70" rx="14" fill="url(#violet)" transform="rotate(8 80 52)"/>
        <rect x="18" y="37" width="72" height="70" rx="14" fill="url(#paper)" stroke="#7d90c3" stroke-width="3"/>
        <circle cx="66" cy="53" r="8" fill="#ffc74a"/>
        <path d="M28 94 43 72l11 12 9-10 17 20z" fill="url(#blue)"/>
        <path d="M29 27c17-14 44-17 63-5l-1-11M92 22 81 23M102 94c-17 17-47 19-66 7l1 11M36 101l12-1" fill="none" stroke-linecap="round" stroke-linejoin="round" stroke-width="8"/>
        <path d="M29 27c17-14 44-17 63-5l-1-11M92 22 81 23" stroke="url(#lime)"/>
        <path d="M102 94c-17 17-47 19-66 7l1 11M36 101l12-1" stroke="url(#cyan)"/>
      </g>
    </symbol>

    <symbol id="tool-image-compressor" viewBox="0 0 128 128">
      <g filter="url(#soft-shadow)">
        <rect x="24" y="23" width="80" height="82" rx="17" fill="url(#paper)" stroke="#7d90c3" stroke-width="3"/>
        <circle cx="78" cy="44" r="9" fill="#ffc74a"/>
        <path d="M34 91 50 66l13 15 10-11 21 21z" fill="url(#blue)"/>
        <path d="M17 44h25M29 32v25M111 84H86M99 71v26" fill="none" stroke="url(#lime)" stroke-width="8" stroke-linecap="round"/>
        <path d="m18 44 11-11 11 11M110 84 99 95 88 84" fill="none" stroke="#fff" stroke-width="4" stroke-linecap="round" stroke-linejoin="round"/>
      </g>
    </symbol>

    <symbol id="tool-images-to-pdf" viewBox="0 0 128 128">
      <g filter="url(#soft-shadow)">
        <rect x="15" y="28" width="66" height="68" rx="14" fill="url(#cyan)" transform="rotate(-7 48 62)"/>
        <circle cx="56" cy="48" r="7" fill="#ffc74a"/>
        <path d="M24 84 39 64l11 12 9-10 15 18z" fill="url(#blue)"/>
        <path d="M66 17h31l17 18v69a11 11 0 0 1-11 11H66a11 11 0 0 1-11-11V28a11 11 0 0 1 11-11z" fill="url(#paper)" stroke="#7d90c3" stroke-width="3"/>
        <path d="M97 17v19h17" fill="#ff675f"/>
        <path d="M72 63h26M72 78h26M72 93h18" stroke="url(#violet)" stroke-width="7" stroke-linecap="round"/>
      </g>
    </symbol>

    <symbol id="tool-pdf-merge" viewBox="0 0 128 128">
      <g filter="url(#soft-shadow)">
        <path d="M16 23h47l14 15v63a10 10 0 0 1-10 10H16z" fill="url(#cyan)" stroke="#2684aa" stroke-width="3"/>
        <path d="M66 17h33l16 17v67a11 11 0 0 1-11 11H66z" fill="url(#paper)" stroke="#7d90c3" stroke-width="3"/>
        <path d="M99 17v18h16" fill="#ff675f"/>
        <path d="M75 57h25M75 73h25M75 89h18" stroke="url(#violet)" stroke-width="7" stroke-linecap="round"/>
        <circle cx="61" cy="66" r="20" fill="url(#blue)" stroke="#283994" stroke-width="3"/>
        <path d="M61 54v24M49 66h24" stroke="#fff" stroke-width="7" stroke-linecap="round"/>
      </g>
    </symbol>

    <symbol id="tool-pdf-split" viewBox="0 0 128 128">
      <g filter="url(#soft-shadow)">
        <path d="M24 17h66l17 18v70a11 11 0 0 1-11 11H24a11 11 0 0 1-11-11V28a11 11 0 0 1 11-11z" fill="url(#paper)" stroke="#7d90c3" stroke-width="3"/>
        <path d="M90 17v19h17" fill="#ff675f"/>
        <path d="M35 52h50M35 70h50M35 88h50" stroke="url(#blue)" stroke-width="7" stroke-linecap="round"/>
        <circle cx="90" cy="92" r="24" fill="url(#violet)" stroke="#43299d" stroke-width="3"/>
        <path d="m78 80 24 24M102 80 78 104" stroke="#fff" stroke-width="7" stroke-linecap="round"/>
      </g>
    </symbol>

    <symbol id="tool-pdf-to-image" viewBox="0 0 128 128">
      <g filter="url(#soft-shadow)">
        <path d="M17 18h54l15 16v69a11 11 0 0 1-11 11H17z" fill="url(#paper)" stroke="#7d90c3" stroke-width="3"/>
        <path d="M71 18v17h15" fill="#ff675f"/>
        <path d="M30 56h40M30 72h31" stroke="url(#violet)" stroke-width="7" stroke-linecap="round"/>
        <rect x="60" y="48" width="56" height="58" rx="14" fill="url(#cyan)" stroke="#267fa9" stroke-width="3"/>
        <circle cx="98" cy="66" r="7" fill="#ffc74a"/>
        <path d="M68 96 80 78l9 11 7-8 13 15z" fill="url(#blue)"/>
      </g>
    </symbol>

    <symbol id="tool-file-metadata" viewBox="0 0 128 128">
      <g filter="url(#soft-shadow)">
        <path d="M24 14h58l18 19v72a11 11 0 0 1-11 11H24a11 11 0 0 1-11-11V25a11 11 0 0 1 11-11z" fill="url(#paper)" stroke="#7d90c3" stroke-width="3"/>
        <path d="M82 14v20h18" fill="url(#violet)"/>
        <path d="M31 51h49M31 68h38M31 85h30" stroke="url(#blue)" stroke-width="7" stroke-linecap="round"/>
        <circle cx="91" cy="89" r="25" fill="url(#blue)" stroke="#283994" stroke-width="3"/>
        <circle cx="91" cy="89" r="11" fill="none" stroke="#fff" stroke-width="6"/>
        <path d="m99 98 12 12" stroke="#fff" stroke-width="7" stroke-linecap="round"/>
      </g>
    </symbol>
    <symbol id="tool-audio-trimmer" viewBox="0 0 128 128"><g filter="url(#soft-shadow)"><rect x="13" y="30" width="102" height="68" rx="18" fill="url(#blue)" stroke="#283994" stroke-width="3"/><path d="M24 64h80" stroke="#fff" stroke-width="5" stroke-linecap="round"/><path d="M39 43v42M89 43v42" stroke="#ffc74a" stroke-width="7" stroke-linecap="round"/><path d="m32 64-12-10v20zM96 64l12-10v20z" fill="#ff675f"/></g></symbol>
    <symbol id="tool-audio-compressor" viewBox="0 0 128 128"><g filter="url(#soft-shadow)"><circle cx="64" cy="64" r="48" fill="url(#violet)" stroke="#43299d" stroke-width="3"/><path d="M24 75c13-28 25 28 38 0s25 28 42-4" fill="none" stroke="#fff" stroke-width="7" stroke-linecap="round"/><path d="M29 91h70" stroke="#ffc74a" stroke-width="7" stroke-linecap="round"/><circle cx="64" cy="32" r="7" fill="#ff675f"/></g></symbol>
    <symbol id="tool-audio-finisher" viewBox="0 0 128 128"><g filter="url(#soft-shadow)"><path d="M64 13 76 42l31 3-24 20 7 31-26-16-26 16 7-31-24-20 31-3z" fill="url(#cyan)" stroke="#267fa9" stroke-width="3"/><path d="m64 35 5 18 19 1-15 12 5 18-14-10-14 10 5-18-15-12 19-1z" fill="#ffc74a"/></g></symbol>
    <symbol id="tool-audio-merger" viewBox="0 0 128 128"><g filter="url(#soft-shadow)"><rect x="13" y="20" width="48" height="34" rx="10" fill="url(#blue)" stroke="#283994" stroke-width="3"/><rect x="67" y="74" width="48" height="34" rx="10" fill="url(#violet)" stroke="#43299d" stroke-width="3"/><path d="M37 54v18h54" fill="none" stroke="#ff675f" stroke-width="7" stroke-linecap="round" stroke-linejoin="round"/><path d="m82 58 10 14 10-14" fill="none" stroke="#ff675f" stroke-width="7" stroke-linecap="round" stroke-linejoin="round"/><path d="M31 37h12M85 91h12" stroke="#fff" stroke-width="5" stroke-linecap="round"/></g></symbol>
    <symbol id="tool-audio-speed-pitch" viewBox="0 0 128 128"><g filter="url(#soft-shadow)"><circle cx="64" cy="64" r="48" fill="url(#blue)" stroke="#283994" stroke-width="3"/><path d="M64 32v34l23 14" fill="none" stroke="#fff" stroke-width="7" stroke-linecap="round" stroke-linejoin="round"/><path d="M31 39a40 40 0 0 0-7 25M97 89a40 40 0 0 0 7-25" fill="none" stroke="#ffc74a" stroke-width="7" stroke-linecap="round"/><path d="m28 31 4 14 13-5M100 97l-4-14-13 5" fill="#ff675f"/></g></symbol>
    <symbol id="tool-silence-remover" viewBox="0 0 128 128"><g filter="url(#soft-shadow)"><rect x="16" y="22" width="96" height="84" rx="16" fill="url(#cyan)" stroke="#267fa9" stroke-width="3"/><path d="M27 64h12l8-22 12 44 12-44 8 22h22" fill="none" stroke="#fff" stroke-width="6" stroke-linejoin="round"/><path d="M42 30v68M86 30v68" stroke="#ff675f" stroke-width="6" stroke-dasharray="7 8"/><path d="M51 99h26" stroke="#ffc74a" stroke-width="7" stroke-linecap="round"/></g></symbol>
    <symbol id="tool-csv-profiler" viewBox="0 0 128 128"><g filter="url(#soft-shadow)"><rect x="17" y="15" width="94" height="98" rx="12" fill="url(#paper)" stroke="#7d90c3" stroke-width="3"/><path d="M31 39h66M31 58h66M31 77h66M31 96h66M52 27v79M76 27v79" stroke="#7d90c3" stroke-width="3"/><path d="M36 88h10V68h10v20h10V51h10v37h10V61h10v27" fill="url(#blue)"/></g></symbol>
    <symbol id="tool-file-diff" viewBox="0 0 128 128"><g filter="url(#soft-shadow)"><rect x="12" y="22" width="43" height="84" rx="10" fill="url(#blue)" stroke="#283994" stroke-width="3"/><rect x="73" y="22" width="43" height="84" rx="10" fill="url(#violet)" stroke="#43299d" stroke-width="3"/><path d="M23 43h21M23 60h15M23 77h21M84 43h21M84 60h21M84 77h15" stroke="#fff" stroke-width="5" stroke-linecap="round"/><path d="M60 53h8M60 75h8" stroke="#ffc74a" stroke-width="7" stroke-linecap="round"/></g></symbol>
    <symbol id="tool-privacy-redactor" viewBox="0 0 128 128"><g filter="url(#soft-shadow)"><path d="M64 13 106 29v31c0 27-17 44-42 55C39 104 22 87 22 60V29z" fill="url(#blue)" stroke="#283994" stroke-width="3"/><path d="M40 54h48M40 69h31M40 84h22" stroke="#fff" stroke-width="6" stroke-linecap="round"/><path d="M78 73h18" stroke="#ff675f" stroke-width="8" stroke-linecap="round"/></g></symbol>
    <symbol id="tool-audio-chapter-marker" viewBox="0 0 128 128"><g filter="url(#soft-shadow)"><rect x="14" y="28" width="100" height="72" rx="18" fill="url(#blue)" stroke="#283994" stroke-width="3"/><path d="M27 64h74" stroke="#fff" stroke-width="5" stroke-linecap="round"/><path d="M39 46v36M64 42v44M89 50v28" stroke="#ffc74a" stroke-width="7" stroke-linecap="round"/><circle cx="39" cy="46" r="6" fill="#ff675f"/><circle cx="64" cy="42" r="6" fill="#ff675f"/><circle cx="89" cy="50" r="6" fill="#ff675f"/></g></symbol>
    <symbol id="tool-image-contact-sheet" viewBox="0 0 128 128"><g filter="url(#soft-shadow)"><rect x="14" y="14" width="100" height="100" rx="14" fill="url(#paper)" stroke="#7d90c3" stroke-width="3"/><rect x="27" y="27" width="30" height="30" rx="5" fill="url(#cyan)"/><rect x="65" y="27" width="30" height="30" rx="5" fill="url(#violet)"/><rect x="27" y="65" width="30" height="30" rx="5" fill="url(#blue)"/><rect x="65" y="65" width="30" height="30" rx="5" fill="#ffc74a"/><circle cx="49" cy="42" r="5" fill="#fff"/><path d="m31 53 9-9 7 7 6-6 4 8M69 53l8-10 6 7 6-5 5 8M31 91l10-13 8 9 6-7 4 11M69 91l8-9 7 6 5-9 6 12" fill="none" stroke="#fff" stroke-width="4" stroke-linecap="round" stroke-linejoin="round"/></g></symbol>
    <symbol id="tool-text-format" viewBox="0 0 128 128"><g filter="url(#soft-shadow)"><rect x="15" y="20" width="98" height="88" rx="14" fill="url(#paper)" stroke="#7d90c3" stroke-width="3"/><path d="M31 42h66M31 59h50M31 76h66M31 93h36" stroke="url(#violet)" stroke-width="7" stroke-linecap="round"/><path d="M88 29v16M80 37h16" stroke="#ff675f" stroke-width="5" stroke-linecap="round"/></g></symbol>
    <symbol id="tool-file-inspector" viewBox="0 0 128 128">
      <g filter="url(#soft-shadow)">
        <path d="M29 18h55l18 19v65a12 12 0 0 1-12 12H29a12 12 0 0 1-12-12V30a12 12 0 0 1 12-12z" fill="url(#paper)" stroke="#7d90c3" stroke-width="3"/>
        <path d="M84 18v20h18" fill="url(#cyan)" stroke="#267fa9" stroke-width="2"/>
        <circle cx="35" cy="51" r="6" fill="url(#lime)"/>
        <circle cx="35" cy="70" r="6" fill="url(#cyan)"/>
        <circle cx="35" cy="89" r="6" fill="url(#violet)"/>
        <path d="M48 51h35M48 70h27M48 89h19" stroke="url(#blue)" stroke-width="6" stroke-linecap="round"/>
        <path d="M77 78h25l15 15-24 24-16-16z" fill="url(#violet)" stroke="#43299d" stroke-width="3"/>
        <circle cx="99" cy="92" r="5" fill="#fff"/>
        <path d="m86 104 7 7 15-15" fill="none" stroke="#fff" stroke-width="5" stroke-linecap="round" stroke-linejoin="round"/>
      </g>
    </symbol>
    <symbol id="tool-image-resize" viewBox="0 0 128 128"><g filter="url(#soft-shadow)"><rect x="22" y="22" width="84" height="84" rx="14" fill="url(#cyan)" stroke="#267fa9" stroke-width="3"/><path d="M43 43h18M43 43v18M85 43H67M85 43v18M43 85h18M43 85V67M85 85H67M85 85V67" fill="none" stroke="#fff" stroke-width="7" stroke-linecap="round"/><path d="M64 31v66M31 64h66" stroke="#ffc74a" stroke-width="5" stroke-linecap="round"/></g></symbol>
    <symbol id="tool-line-sticker-studio" viewBox="0 0 128 128"><g filter="url(#soft-shadow)"><rect x="13" y="18" width="102" height="92" rx="18" fill="url(#violet)" stroke="#43299d" stroke-width="3"/><path d="M32 48c0-9 7-16 16-16h32c9 0 16 7 16 16v18c0 9-7 16-16 16H60l-13 14 2-14h-1c-9 0-16-7-16-16z" fill="#fff"/><circle cx="53" cy="57" r="6" fill="#ff675f"/><circle cx="75" cy="57" r="6" fill="#ffc74a"/><path d="M49 72c9 7 19 7 28 0" fill="none" stroke="#267fa9" stroke-width="5" stroke-linecap="round"/></g></symbol>
    <symbol id="tool-svg-asset-studio" viewBox="0 0 128 128"><g filter="url(#soft-shadow)"><path d="M18 22h92v84H18z" fill="url(#paper)" stroke="#7d90c3" stroke-width="3"/><path d="m64 34 27 30-27 30-27-30z" fill="url(#cyan)" stroke="#267fa9" stroke-width="4"/><path d="m64 47 15 17-15 17-15-17z" fill="#fff"/><path d="M25 42h15M88 86h15" stroke="#ffc74a" stroke-width="6" stroke-linecap="round"/></g></symbol>
    <symbol id="tool-community-mapping" viewBox="0 0 128 128"><g filter="url(#soft-shadow)"><path d="M15 25 43 15l42 10 28-10v88l-28 10-42-10-28 10z" fill="url(#cyan)" stroke="#267fa9" stroke-width="3"/><path d="M43 15v88M85 25v88" stroke="#fff" stroke-width="3" opacity=".85"/><path d="M29 74c11-22 22 17 32-4s19 9 35-18" fill="none" stroke="#ffc74a" stroke-width="6" stroke-linecap="round"/><circle cx="64" cy="54" r="9" fill="#ff675f" stroke="#fff" stroke-width="4"/></g></symbol>
    <symbol id="tool-json-schema-generator" viewBox="0 0 128 128"><g filter="url(#soft-shadow)"><rect x="18" y="16" width="92" height="96" rx="14" fill="url(#paper)" stroke="#7d90c3" stroke-width="3"/><path d="M36 38h56M36 57h20M72 57h20M36 76h20M72 76h20M36 95h56" stroke="url(#blue)" stroke-width="6" stroke-linecap="round"/><path d="m57 53 14 14-14 14" fill="none" stroke="#ff675f" stroke-width="5" stroke-linecap="round" stroke-linejoin="round"/><circle cx="97" cy="29" r="8" fill="#ffc74a"/></g></symbol>
    <symbol id="tool-markdown-table-builder" viewBox="0 0 128 128"><g filter="url(#soft-shadow)"><rect x="15" y="18" width="98" height="92" rx="14" fill="url(#paper)" stroke="#7d90c3" stroke-width="3"/><path d="M29 45h70M29 68h70M29 91h70M52 30v72M76 30v72" stroke="#267fa9" stroke-width="5"/><path d="M29 30h70" stroke="#ff675f" stroke-width="7" stroke-linecap="round"/><circle cx="40" cy="30" r="4" fill="#ffc74a"/></g></symbol>
    <symbol id="tool-url-query-builder" viewBox="0 0 128 128"><g filter="url(#soft-shadow)"><path d="M18 49h36l10 12H18z" fill="url(#blue)" stroke="#283994" stroke-width="3"/><path d="M74 67h36L99 79H64z" fill="url(#violet)" stroke="#43299d" stroke-width="3"/><path d="M47 55h28M53 73h22" stroke="#ffc74a" stroke-width="6" stroke-linecap="round"/><path d="M32 31h64M32 97h64" stroke="#267fa9" stroke-width="5" stroke-linecap="round"/><circle cx="32" cy="31" r="6" fill="#ff675f"/><circle cx="96" cy="97" r="6" fill="#ff675f"/></g></symbol>
    <symbol id="category-location" viewBox="0 0 128 128">
      <g filter="url(#soft-shadow)">
        <path d="M14 31 43 18l42 12 29-13v82l-29 13-42-12-29 13z" fill="url(#paper)" stroke="#7d90c3" stroke-width="3" stroke-linejoin="round"/>
        <path d="M43 18v82M85 30v82" stroke="#7d90c3" stroke-width="3"/>
        <path d="M24 86c13-20 25 10 38-5s21 6 39-17" fill="none" stroke="url(#cyan)" stroke-width="7" stroke-linecap="round"/>
        <path d="M88 19c-12 0-22 10-22 22 0 17 22 34 22 34s22-17 22-34c0-12-10-22-22-22z" fill="url(#violet)" stroke="#43299d" stroke-width="3"/>
        <circle cx="88" cy="41" r="8" fill="#fff"/>
        <circle cx="88" cy="41" r="4" fill="#ff675f"/>
      </g>
    </symbol>
    <symbol id="category-files" viewBox="0 0 128 128">
      <g filter="url(#soft-shadow)">
        <path d="M15 38a12 12 0 0 1 12-12h25l10 11h39a12 12 0 0 1 12 12v49a13 13 0 0 1-13 13H28a13 13 0 0 1-13-13z" fill="url(#cyan)" stroke="#267fa9" stroke-width="3"/>
        <path d="M20 55h88v44a10 10 0 0 1-10 10H30a10 10 0 0 1-10-10z" fill="url(#blue)" stroke="#283994" stroke-width="3"/>
        <path d="M39 44h42l14 15v35H39z" fill="url(#paper)" stroke="#7d90c3" stroke-width="3"/>
        <path d="M81 44v16h14" fill="url(#lime)"/>
        <path d="M49 68h34M49 80h25" stroke="#5f75b8" stroke-width="5" stroke-linecap="round"/>
        <path d="M79 76h25l14 14-24 24-15-15z" fill="url(#violet)" stroke="#43299d" stroke-width="3"/>
        <circle cx="101" cy="89" r="5" fill="#fff"/>
      </g>
    </symbol>
    <symbol id="category-diagrams" viewBox="0 0 128 128">
      <g filter="url(#soft-shadow)">
        <rect x="13" y="16" width="102" height="96" rx="18" fill="url(#glass)" stroke="#6989dd" stroke-width="3"/>
        <path d="M42 44h22v19M86 44H64v19M64 63v22M42 85h44" fill="none" stroke="#fff" stroke-width="6" stroke-linecap="round" stroke-linejoin="round"/>
        <rect x="24" y="28" width="36" height="26" rx="9" fill="url(#blue)" stroke="#283994" stroke-width="3"/>
        <rect x="68" y="28" width="36" height="26" rx="9" fill="url(#violet)" stroke="#43299d" stroke-width="3"/>
        <circle cx="42" cy="91" r="16" fill="url(#lime)" stroke="#61a91b" stroke-width="3"/>
        <path d="m75 75 19 8v20l-19 8-19-8V83z" fill="url(#cyan)" stroke="#267fa9" stroke-width="3"/>
      </g>
    </symbol>
    <symbol id="category-games" viewBox="0 0 128 128">
      <g filter="url(#soft-shadow)">
        <path d="M36 39h56c11 0 18 8 21 20l7 30c3 13-11 22-21 13L83 89H45l-16 13c-10 9-24 0-21-13l7-30c3-12 10-20 21-20z" fill="url(#violet)" stroke="#43299d" stroke-width="3"/>
        <path d="M36 59v24M24 71h24" stroke="#fff" stroke-width="8" stroke-linecap="round"/>
        <circle cx="91" cy="62" r="7" fill="#ff675f"/>
        <circle cx="104" cy="76" r="7" fill="#ffc74a"/>
        <rect x="54" y="48" width="20" height="9" rx="4.5" fill="url(#cyan)"/>
        <circle cx="59" cy="75" r="5" fill="url(#lime)"/>
      </g>
    </symbol>
    <symbol id="category-fortune" viewBox="0 0 128 128">
      <g filter="url(#soft-shadow)">
        <circle cx="64" cy="53" r="39" fill="url(#glass)" stroke="#6989dd" stroke-width="3"/>
        <path d="M73 28c-15 2-24 16-20 30 4 15 20 23 34 17-8 11-23 16-36 10-17-7-25-27-18-44 6-13 22-20 40-13z" fill="#fff" fill-opacity=".9"/>
        <path d="m89 38 3 7 7 3-7 3-3 8-3-8-8-3 8-3zM43 34l2 5 5 2-5 2-2 6-2-6-6-2 6-2z" fill="#ffc74a"/>
        <path d="M39 86h50l13 24H26z" fill="url(#violet)" stroke="#43299d" stroke-width="3" stroke-linejoin="round"/>
        <path d="M43 98h42" stroke="url(#lime)" stroke-width="7" stroke-linecap="round"/>
      </g>
    </symbol>
  </defs>
</svg>
